<svg viewBox="150 60 300 210" xmlns="http://www.w3.org/2000/svg" xmlns:svg="http://www.w3.org/2000/svg">
 <g>
  <title>Layer 1</title>
  <g id="svg_52">
   <circle stroke="#000" id="svg_30" r="71.90942" cy="186.25" cx="281.25001" stroke-linecap="null" stroke-linejoin="null" stroke-dasharray="null" stroke-width="1.5" fill="#aaffff"/>
   <path d="m303.5,211c-1.26041,0 -2.16858,-0.008 -3.01041,-0.25c-0.78665,-0.22614 -1.66364,-0.50409 -2.5,-0.75c-0.87253,-0.25653 -1.65454,-0.68155 -2.53952,-0.93924c-0.8342,-0.24292 -1.71048,-0.06076 -2.57339,-0.06076c-0.85077,0 -1.80518,0 -2.67667,0c-0.93961,0 -1.84201,0 -2.70001,0c-0.91666,0 -1.76041,0 -2.60535,0c-0.89465,0 -1.79999,0 -2.73599,0c-0.77399,0 -2.03189,-0.27603 -2.57333,0.45734c-0.49677,0.67288 -0.79163,1.27255 -1.43533,1.89267c-0.58228,0.56094 -1.31976,1.00507 -2.12366,1.62366c-0.68967,0.5307 -1.51575,0.52634 -2.41101,0.52634c-0.77399,0 -1.80493,0.194 -2.71466,0c-0.77591,-0.16547 -1.27127,-1.15802 -2.0484,-1.47141c-0.79721,-0.32147 -1.40833,-0.59573 -1.81027,-1.17126c-0.46365,-0.66391 -0.94135,-1.67319 -1.75467,-1.85733c-0.87579,-0.19827 -1.55328,0.56564 -2.11099,0.99774c-0.71347,0.55273 -1.65314,0.76288 -2,1.52859c-0.34848,0.76929 -0.17633,1.72366 -0.17633,2.62366c0,0.89999 0,1.76666 0,2.67859c0,0.87207 0.06293,1.75864 -0.01801,2.55875c-0.09067,0.89621 -0.57681,1.81 -0.76401,2.51801c-0.23276,0.88025 -0.42099,1.65631 -0.65723,2.64465c-0.21143,0.88452 -0.54007,1.45721 -0.81076,2.20001c-0.33539,0.92032 -0.87686,1.59918 -1.22141,2.39999c-0.33524,0.77917 0.11359,1.33929 0.8714,1.70801c0.84171,0.40955 1.60229,0.86081 2.38733,1.142c0.82684,0.29617 1.64264,0.45502 2.43066,0.71268c0.82492,0.26971 1.52158,0.7821 2.43201,0.78732c0.892,0.0051 1.80313,0.06329 2.59268,-0.142c0.8783,-0.22836 1.83713,-0.45642 2.51773,-0.608c1.03409,-0.23035 1.76102,-0.24887 2.71875,-0.25c0.92017,-0.0011 1.82428,0.19263 2.69943,-0.00226c0.82266,-0.18323 1.53552,-0.67212 2.48807,-0.9144c0.70767,-0.17999 1.71002,-0.08334 2.62802,-0.08334c0.92331,0 1.80466,0 2.70532,0c0.85001,0 1.46042,0.39078 2.04199,1.04199c0.57169,0.64014 1.4476,0.95801 2.30801,0.95801c0.89999,0 1.79999,0 2.69199,0c0.85867,0 1.76746,0.10172 2.54535,-0.30533c0.82877,-0.43365 1.46521,-1.12863 2.19467,-1.48199c0.72125,-0.3494 1.3811,-0.81833 2.21799,-1.21268c0.67337,-0.31732 1.64746,-0.55511 2.35733,-0.99933c0.78986,-0.49426 1.23001,-1.08801 1.93735,-1.79535c0.60532,-0.60532 1.49811,-1.04694 1.95532,-1.69492c0.40329,-0.57156 0.65927,-1.37546 0.74774,-2.21265c0.10187,-0.96381 0.00226,-1.89777 0.00226,-2.79776c0,-0.85001 0,-1.73959 0,-2.65225c0,-0.84775 0.13135,-1.83591 -0.21268,-2.56042c-0.3779,-0.7959 -1.125,-1.38205 -1.90875,-1.76099c-0.74744,-0.36139 -0.87857,-1.24432 -0.87857,-2.16901l0,-0.85733" id="svg_32" stroke-linecap="null" stroke-linejoin="null" stroke-dasharray="null" stroke-width="1.5" stroke="#000" fill="#aaff56"/>
   <path d="m316.5,224c-0.45801,1.10001 -0.69565,1.92209 -1.21799,2.70001c-0.49442,0.73633 -0.88885,1.46274 -1.33194,2.28931c-0.40451,0.75461 -0.77591,1.52676 -1.18967,2.26068c-0.43668,0.7746 -0.67181,1.58719 -0.76041,2.5c-0.07965,0.82083 0.00113,1.77902 -0.28732,2.54999c-0.32224,0.86124 -0.70737,1.46216 -1.28201,2.28201c-0.52066,0.74283 -0.95926,1.418 -1.78558,1.418c-0.92175,0 -1.13467,0 -0.22842,0c0.83334,0 1.76193,0.00034 2.66669,0c0.87466,-0.00034 1.521,-0.5957 2.11133,-1.19467c0.6152,-0.62421 1.09628,-1.40854 1.30533,-2.30533c0.18658,-0.80042 0.55746,-1.7081 0.79999,-2.40533c0.3096,-0.89008 0.6156,-1.69934 1.13925,-2.534c0.35889,-0.57202 0.81854,-1.31326 1.41077,-1.91068c0.64716,-0.65283 1.3689,-1.17566 2.06665,-1.64999c0.59818,-0.40665 0.82208,-1.25528 1.22534,-2.09933c0.34833,-0.72903 0.74341,-1.73068 0.27466,-2.48401c-0.42001,-0.67499 -1.56665,-0.41666 -2.5,-0.41666l-0.81732,0l-0.923,0" id="svg_33" stroke-linecap="null" stroke-linejoin="null" stroke-dasharray="null" stroke-width="1.5" stroke="#000" fill="#aaff56"/>
   <path d="m210.50003,184.25003c0,-1.1875 0,-2.07031 0,-2.96851c0,-0.888 0.05426,-1.73209 0.24274,-2.52426c0.20605,-0.86606 0.68799,-1.39697 0.88226,-2.11374c0.23184,-0.85541 0.18219,-1.72278 0.375,-2.52631c0.20404,-0.85031 0,-1.76068 0,-2.67969c0,-0.875 -0.186,-1.78687 0,-2.64551c0.18088,-0.83502 0.68137,-1.48114 0.90948,-2.31299c0.2175,-0.79312 0.37225,-1.54028 0.59052,-2.4165c0.19324,-0.7757 0.76318,-1.34033 1.125,-2.06976c0.35608,-0.7179 0.73761,-1.457 1.07944,-2.1178c0.37509,-0.72507 0.72006,-1.40787 1.01105,-2.09045c0.33798,-0.79285 0.65863,-1.39801 0.84702,-2.09698c0.22845,-0.84756 0.4404,-1.49826 0.8125,-2.125c0.37009,-0.62329 0.70532,-1.33255 1.12668,-2.06976c0.35416,-0.6196 0.8959,-1.14902 1.09131,-1.84924c0.2312,-0.82855 0.43042,-1.48679 0.78201,-2.12206c0.4017,-0.7258 0.72894,-1.34288 1.11719,-1.90425c0.37036,-0.53551 1.04303,-0.74464 1.6673,-1.11719c0.58603,-0.34972 1.08762,-0.92543 1.67001,-1.58301c0.52762,-0.5957 1.55112,-0.96178 1.9205,-0.3985c0.50394,0.76851 0.32166,1.63303 0.375,2.49043c0.05307,0.85292 0.00162,1.78523 -0.41245,2.52856c-0.41846,0.75121 -1.16943,1.44518 -1.08755,2.27501c0.08209,0.83179 0.92047,1.41016 1.76248,1.68024c0.85107,0.27298 1.53073,0.2659 1.26901,1.06427c-0.27563,0.84082 -0.99936,1.76416 -0.69843,2.44305c0.34848,0.78619 1.56494,0.56424 2.35443,0.74994c0.83957,0.19748 1.73853,0.08649 2.01694,0.87042c0.28687,0.80774 0.31705,1.80539 0.99088,2.31708c0.66223,0.5029 1.84796,0.05591 2.40823,0.69473c0.55652,0.63455 0.02145,1.81769 0.02145,2.67245c0,0.89975 -0.04221,1.84299 -0.707,2.3703c-0.72394,0.57422 -1.55878,0.97202 -1.918,1.59644c-0.38538,0.66983 -0.91516,1.36951 -1.72101,1.69006c-0.85361,0.33954 -1.97198,0.73734 -2.64676,0.16351c-0.62711,-0.53329 0.02307,-1.66757 -0.15369,-2.5108c-0.19156,-0.91385 -0.85458,-1.42606 -1.69406,-1.6142c-0.8891,-0.19928 -1.71527,-0.12534 -2.4845,-0.61349c-0.70981,-0.45047 -1.58249,-1.75363 -2.17499,-1.17831c-0.6185,0.60059 -0.11444,1.82727 0.229,2.6033c0.36694,0.82907 0.7572,1.53033 1.2085,2.25101c0.40472,0.6463 0.35568,1.55582 0.84448,2.18698c0.42548,0.54938 1.10739,0.99869 1.60025,1.63275c0.49988,0.6431 0.9444,1.30521 1.36777,1.98383c0.45764,0.73355 1.02103,1.4064 1.38748,2.15894c0.384,0.78854 0.69794,1.58774 0.81696,2.54187c0.09924,0.79572 0.04715,1.87064 0.04556,2.64462c-0.00201,0.97302 -0.39743,1.75671 -0.375,2.61349c0.02429,0.92761 0.31818,1.58435 0.75781,2.37033c0.50055,0.8949 0.86548,1.56616 1.29688,2.41406c0.41525,0.81622 1.10315,1.3754 1.56305,2.15482c0.44827,0.7597 0.84412,1.60306 1.06976,2.353c0.21042,0.69931 0.03354,1.56015 -0.33749,2.3558c-0.38803,0.83215 -0.87677,1.57336 -0.97501,2.46451c-0.09814,0.89017 0.04211,1.72388 0.60001,2.32199c0.56146,0.60193 0.52499,1.55301 0.52499,2.42801c0,0.78799 0.07822,1.77753 -0.13226,2.6608c-0.19241,0.8075 -0.60516,1.80109 -1.31174,2.0267c-0.83411,0.26636 -1.77823,-0.03131 -2.54877,0.39642c-0.76666,0.4256 -0.62881,1.56519 -1.06973,2.22076c-0.44873,0.66718 -1.37799,0.7558 -2.30893,0.75781c-0.87076,0.00186 -2.02191,-0.62039 -2.69107,0c-0.60672,0.5625 0.37756,1.84894 -0.07031,2.625c-0.43063,0.74619 -1.3912,1.14236 -2.2847,1.125c-0.86884,-0.01688 -1.08249,-0.96152 -1.08249,-0.418c0,0.9335 0,1.82693 0,2.7305c0,0.875 0.44766,1.53833 0.72855,2.32144c0.29874,0.83286 0.49561,1.71872 0.39645,2.59756c-0.09341,0.82782 -1.047,1.24557 -1.9375,1.01849c-0.75885,-0.19351 -1.73492,-0.21313 -2.1875,-0.85699c-0.49371,-0.70236 0.22305,-1.80518 -0.00168,-2.65027c-0.19379,-0.72876 -0.56467,-1.457 -0.96384,-2.11374c-0.36292,-0.59711 -0.93335,-1.0752 -1.5,-1.51749c-0.56033,-0.43735 -0.92001,-1.09341 -1.28448,-1.61877c-0.38193,-0.55051 -0.37302,-1.45074 -0.375,-2.33325c-0.00201,-0.896 -0.1604,-1.44312 -0.375,-2.30298c-0.19119,-0.76611 -0.41354,-1.60349 -0.75006,-2.311c-0.36664,-0.77084 -1.04575,-1.19302 -1.28445,-1.9245c-0.24371,-0.74686 -0.1344,-1.64978 -0.21548,-2.5145c-0.08011,-0.85422 -0.375,-1.54401 -0.75,-2.08801l0,-0.85901" id="svg_48" stroke-linecap="null" stroke-linejoin="null" stroke-dasharray="null" stroke-width="1.5" stroke="#000" fill="#aaff56"/>
   <path d="m269.37503,116.37503c-1.16251,0.08299 -1.90732,0.4557 -2.6875,0.75c-0.73917,0.27881 -1.59604,0.19043 -2.45599,0.407c-0.75333,0.18971 -1.33859,0.89413 -2.04401,1.093c-0.84216,0.23741 -1.60895,0.32329 -2.4165,0.5905c-0.83411,0.276 -1.78241,-0.06522 -2.61151,0.1595c-0.71677,0.19426 -1.23206,0.82962 -1.875,1.125c-0.73993,0.33992 -1.64398,0.39005 -2.40948,0.6875c-0.75385,0.29292 -1.38574,0.74603 -1.95801,1.14194c-0.58905,0.40752 -1.39523,0.50452 -2.00751,0.79556c-0.70673,0.33594 -1.62482,0.16736 -2.47198,0.4375c-0.76746,0.24472 -1.30182,0.9337 -1.94476,1.56975c-0.62787,0.62115 -1.21368,1.03085 -1.875,1.36775c-0.60016,0.30576 -1.05377,0.75079 -1.39975,1.39349c-0.34552,0.6418 -1.28934,1.78188 -1.30048,1.23151c-0.01639,-0.80846 1.66464,-0.51469 2.5325,-0.70444c0.88034,-0.19247 1.79218,-0.04556 2.66248,-0.04556c0.88025,0 1.45322,0.59879 1.65601,1.42499c0.20682,0.84262 0.62195,1.70866 1.36374,1.95001c0.84286,0.27423 1.20456,-0.89716 1.87671,-1.47856c0.59164,-0.51176 1.44223,-0.89229 2.22305,-1.25294c0.76822,-0.35484 1.41,-0.81267 2.14301,-1.20599c0.73477,-0.39427 1.70352,-0.32631 2.5795,-0.10451c0.72009,0.18233 1.49918,0.64423 2.38657,0.66701c0.84616,0.02173 1.78394,0 2.64642,0c0.87857,0 1.78394,0 2.672,0c0.85303,0 1.71552,0 2.647,0c0.85077,0 1.81512,-0.10568 2.63101,0.1875c0.79245,0.28476 1.46243,0.93074 2.36249,0.9375c0.90805,0.00681 1.81366,0.0708 2.40808,-0.41251c0.65698,-0.53418 1.19125,-1.22702 1.85544,-1.869c0.61615,-0.59555 1.28574,-1.21948 2.18817,-1.09349c0.76746,0.10715 1.1658,0.8931 1.84131,1.46849c0.54828,0.46701 1.21085,1.11198 2.07053,1.14301c0.69998,0.02527 0.77704,-1.2664 1.39899,-1.8615c0.61972,-0.59297 1.60141,-0.47453 2.42856,-0.77144c0.74118,-0.26604 1.39566,-0.67091 2.00894,-1.13557c0.63611,-0.48196 0.18091,-1.83459 0.85699,-2.21799c0.77026,-0.4368 1.75995,0 2.664,0c0.8725,0 1.72736,0.12444 2.44751,0.48149c0.67007,0.33223 0.7934,-0.65993 1.51175,-0.98875c0.74258,-0.33992 1.34906,-0.91264 2.20724,-0.99274c0.89163,-0.08322 1.77039,-0.01044 2.39551,-0.45801c0.64584,-0.4624 1.22626,-0.88113 1.79199,-1.22949c0.64063,-0.39445 1.64697,-0.30627 1.5,-1.18025c-0.13614,-0.80954 -1.05154,-1.12016 -1.71552,-1.25725c-0.89069,-0.18388 -1.64615,-0.13942 -2.49249,-0.375c-0.69922,-0.19463 -1.43866,-0.43913 -2.13498,-0.75c-0.63806,-0.28487 -1.43375,-0.55185 -2.12253,-0.746c-0.8624,-0.24309 -1.79175,-0.004 -2.65222,-0.004l-0.90369,0l-0.7269,-0.24275l-0.78369,-0.13225" id="svg_49" stroke-linecap="null" stroke-linejoin="null" stroke-dasharray="null" stroke-width="1.5" stroke="#000" fill="#ffffff"/>
   <rect stroke-opacity="0" id="svg_50" height="19.5" width="129" y="173.00003" x="217.25003" stroke-linecap="null" stroke-linejoin="null" stroke-dasharray="null" stroke-width="1.5" stroke="#000000" fill="#ffffff"/>
   <text xml:space="preserve" text-anchor="middle" font-family="serif" font-size="24" id="svg_29" y="190.80247" x="281.73545" stroke-linecap="null" stroke-linejoin="null" stroke-dasharray="null" stroke-width="0" stroke="#000" fill="#000000">Environment</text>
  </g>
  <g id="svg_15" transform="rotate(138.9871826171875 318.4980163574219,123.67959594726564) ">
   <ellipse ry="41.5" rx="28" id="svg_1" cy="133" cx="318.5" stroke-width="1.5" stroke="#000" fill="#7fff00"/>
   <line stroke-linecap="undefined" stroke-linejoin="undefined" id="svg_3" y2="115.74802" x2="343.85051" y1="115.74802" x1="292.4982" fill-opacity="null" stroke-opacity="null" stroke-width="1.5" stroke="#000" fill="none"/>
   <line stroke-linecap="undefined" stroke-linejoin="undefined" id="svg_4" y2="115.99321" x2="318.24788" y1="174.49729" x1="318.24788" fill-opacity="null" stroke-opacity="null" stroke-width="1.5" stroke="#000" fill="none"/>
   <ellipse ry="4.62494" rx="4.62494" id="svg_5" cy="106.12314" cx="309.37299" stroke-width="1.5" stroke="#000" fill="#ff5d00"/>
   <ellipse ry="4.62494" rx="4.62494" id="svg_6" cy="105.87314" cx="327.62276" stroke-width="1.5" stroke="#000" fill="#ff5d00"/>
   <line stroke-linecap="null" stroke-linejoin="null" id="svg_7" y2="132.24781" x2="356.75959" y1="132.24781" x1="346.49753" fill-opacity="null" stroke-opacity="null" stroke-width="1.5" stroke="#000" fill="none"/>
   <line stroke-linecap="null" stroke-linejoin="null" id="svg_8" y2="98.58137" x2="349.91435" y1="107.74812" x1="340.7476" fill-opacity="null" stroke-opacity="null" stroke-width="1.5" stroke="#000" fill="none"/>
   <line stroke-linecap="null" stroke-linejoin="null" id="svg_9" y2="166.89437" x2="350.14447" y1="157.9975" x1="341.2476" fill-opacity="null" stroke-opacity="null" stroke-width="1.5" stroke="#000" fill="none"/>
   <line stroke-linecap="null" stroke-linejoin="null" id="svg_10" y2="132.74781" x2="280.23645" y1="132.74781" x1="290.74822" fill-opacity="null" stroke-opacity="null" stroke-width="1.5" stroke="#000" fill="none"/>
   <line stroke-linecap="null" stroke-linejoin="null" id="svg_11" y2="98.48396" x2="287.48398" y1="107.24812" x1="296.24815" fill-opacity="null" stroke-opacity="null" stroke-width="1.5" stroke="#000" fill="none"/>
   <line stroke-linecap="null" stroke-linejoin="null" id="svg_12" y2="166.76253" x2="288.48311" y1="158.49749" x1="296.74814" fill-opacity="null" stroke-opacity="null" stroke-width="1.5" stroke="#000" fill="none"/>
   <path transform="rotate(51.240570068359375 312.37316894531244,82.69183349609375) " id="svg_13" d="m305.90365,77.01036c-7.64718,11.65176 15.00048,12.00039 14.50974,11.00674" stroke-width="1.5" stroke="#000" fill="none"/>
   <path stroke="#000" transform="rotate(127.94864654541016 324.63287353515625,83.16613769531249) " id="svg_14" d="m318.16337,88.23386c-7.64717,-10.39307 15.00049,-10.70404 14.50974,-9.81773" stroke-width="1.5" fill="none"/>
  </g>
 </g>
</svg>
